<svg width="165" height="32" viewBox="0 0 165 32" fill="none" xmlns="http://www.w3.org/2000/svg">
<g clip-path="url(#clip0_11013_23069)">
<path d="M15.9975 9.81559C17.7047 9.81559 19.2506 10.5085 20.3701 11.6268C21.0396 12.2964 21.5561 13.119 21.8634 14.0375C21.9032 14.1567 22.0095 14.2326 22.1345 14.2326H27.99C28.0765 14.2326 28.1524 14.1976 28.2085 14.1309C28.2646 14.0643 28.2868 13.9849 28.2716 13.8984C27.8299 11.302 26.5854 8.97893 24.8011 7.1946C22.5482 4.94168 19.4353 3.54764 15.9963 3.54764C12.5573 3.54764 9.44555 4.94168 7.19264 7.1946C5.40831 8.97893 4.16383 11.302 3.72213 13.8984C3.70811 13.9837 3.72914 14.0643 3.78523 14.1309C3.84132 14.1976 3.9161 14.2326 4.00374 14.2326H8.45231C8.54112 14.2326 8.61707 14.2688 8.67316 14.3366C8.72925 14.4044 8.75028 14.4862 8.73276 14.5726C8.64278 15.0342 8.59487 15.511 8.59487 15.9994C8.59487 16.4879 8.64278 16.9646 8.73276 17.4262C8.75028 17.5127 8.72925 17.5944 8.67316 17.6622C8.61707 17.73 8.54112 17.7662 8.45231 17.7662H4.00374C3.91727 17.7662 3.84132 17.8013 3.78523 17.8667C3.72914 17.9333 3.70694 18.0128 3.72213 18.0993C4.16383 20.6957 5.40831 23.0187 7.19264 24.8031C8.97698 26.5874 11.3 27.8319 13.8965 28.2724C13.9818 28.2876 14.0624 28.2654 14.129 28.2093C14.1956 28.1532 14.2307 28.0784 14.2307 27.9908V23.5434C14.2307 23.4546 14.2669 23.3786 14.3347 23.3225C14.4024 23.2665 14.4842 23.2454 14.5707 23.263C15.0323 23.3529 15.5102 23.4008 15.9975 23.4008C16.4847 23.4008 16.9627 23.3529 17.4242 23.263C17.5107 23.2466 17.5925 23.2665 17.6603 23.3225C17.728 23.3786 17.7643 23.4546 17.7643 23.5434V27.9908C17.7643 28.0773 17.7993 28.1532 17.8648 28.2093C17.9314 28.2654 18.0108 28.2876 18.0973 28.2724C19.5171 28.0317 20.8538 27.5503 22.0668 26.8714C22.1789 26.8083 22.3145 26.827 22.4068 26.9169L24.6013 29.074C24.6656 29.1371 24.6948 29.2177 24.6854 29.3077C24.6761 29.3977 24.6305 29.4701 24.5546 29.5192C22.0796 31.0886 19.1443 31.9977 15.9975 31.9977C11.5793 31.9977 7.57942 30.2063 4.68382 27.3119C1.78939 24.4175 -0.00195312 20.4176 -0.00195312 15.9994C-0.00195312 11.5812 1.78939 7.58138 4.68499 4.68695C7.57942 1.79135 11.5793 0 15.9975 0C20.4156 0 24.4155 1.79135 27.3111 4.68695C30.2067 7.58255 31.9969 11.5824 31.9969 16.0006C31.9969 19.6557 30.7711 23.0234 28.7087 25.718C28.621 25.8325 28.6315 25.9938 28.7355 26.0955L29.1282 26.4822C29.2403 26.5921 29.2415 26.7732 29.1317 26.8854L27.0505 29.0016C26.9407 29.1137 26.7596 29.1149 26.6474 29.0051L20.2193 22.6857C20.1072 22.5759 20.106 22.3947 20.2158 22.2814L20.4601 22.0325C20.5699 21.9203 20.5687 21.7392 20.4565 21.6294L19.9132 21.0953C19.8139 20.9984 19.6631 20.9855 19.5486 21.065C18.5437 21.7708 17.3191 22.1867 15.9975 22.1867C14.2903 22.1867 12.7443 21.4938 11.6249 20.3755C10.5054 19.2561 9.81364 17.7101 9.81364 16.0029C9.81364 14.2957 10.5066 12.7498 11.6249 11.6303C12.7443 10.5109 14.2903 9.8191 15.9975 9.8191V9.81559ZM26.201 23.1368C27.2351 21.6609 27.9573 19.9502 28.2716 18.1004C28.2857 18.0151 28.2646 17.9345 28.2085 17.8679C28.1524 17.8013 28.0777 17.7662 27.99 17.7662H22.1345C22.0095 17.7662 21.9032 17.8422 21.8634 17.9614C21.6753 18.5223 21.4101 19.0481 21.0794 19.5237C20.9987 19.6394 21.0139 19.7924 21.1133 19.8906L21.6473 20.4153C21.7594 20.5251 21.9406 20.5239 22.0504 20.4118L22.2946 20.1629C22.4045 20.0507 22.5856 20.0495 22.6978 20.1594L25.7651 23.1741C25.8271 23.2349 25.9042 23.263 25.9918 23.2548C26.0783 23.2466 26.1496 23.2057 26.1998 23.1344L26.201 23.1368ZM17.8613 14.1368C17.3845 13.66 16.7255 13.3656 15.9975 13.3656C15.2695 13.3656 14.6104 13.6612 14.1337 14.1368C13.6569 14.6135 13.3613 15.2726 13.3613 16.0006C13.3613 16.7286 13.6569 17.3876 14.1337 17.8644C14.6104 18.3411 15.2695 18.6356 15.9975 18.6356C16.7255 18.6356 17.3845 18.34 17.8613 17.8644C18.338 17.3876 18.6325 16.7286 18.6325 16.0006C18.6325 15.2726 18.3368 14.6135 17.8613 14.1368Z" fill="#405FF2"/>
</g>
<path fill-rule="evenodd" clip-rule="evenodd" d="M156.222 10.5459C158.046 10.5459 159.558 10.8939 160.758 11.5898C161.982 12.2858 162.881 13.2701 163.457 14.542C164.057 15.79 164.345 17.2779 164.321 19.0059L164.214 28.9775H159.785L159.7 26.8496C159.603 27.0262 159.5 27.1959 159.39 27.3574C158.478 28.7254 156.929 29.4102 154.745 29.4102C152.585 29.4101 150.905 28.9297 149.705 27.9697C148.529 27.0098 147.942 25.654 147.941 23.9023C147.941 21.9823 148.578 20.542 149.85 19.582C151.146 18.5981 152.957 18.1055 155.285 18.1055H159.513C159.455 17.7442 159.378 17.408 159.281 17.0977C159.065 16.3298 158.705 15.7419 158.201 15.334C157.721 14.9021 157.062 14.6856 156.222 14.6855C155.454 14.6855 154.758 14.8536 154.134 15.1895C153.51 15.5255 152.982 16.0423 152.55 16.7383L148.373 15.2979C148.709 14.5299 149.202 13.7854 149.85 13.0654C150.498 12.3216 151.337 11.7215 152.369 11.2656C153.425 10.7856 154.71 10.5459 156.222 10.5459ZM156.941 21.6338C155.381 21.6338 154.301 21.826 153.701 22.21C153.101 22.5699 152.802 23.0859 152.802 23.7578C152.802 24.2858 153.042 24.7056 153.521 25.0176C154.001 25.3055 154.673 25.4502 155.537 25.4502C156.329 25.4502 157.025 25.27 157.625 24.9102C158.249 24.5262 158.742 24.0457 159.102 23.4697C159.417 22.9447 159.593 22.4105 159.633 21.8672L159.642 21.6338H156.941Z" fill="black"/>
<path d="M75.8926 20.1934C75.8926 21.3932 76.0251 22.3411 76.2891 23.0371C76.5771 23.7091 76.9726 24.2017 77.4766 24.5137C78.0045 24.8016 78.5924 24.9453 79.2402 24.9453C80.4882 24.9693 81.437 24.5971 82.085 23.8291C82.6922 23.0866 83.0148 22.0385 83.0527 20.6846L83.0566 20.4092V10.9775H87.8086V28.9775H83.3447L83.1348 26.5684C82.6605 27.2952 82.0953 27.8947 81.4365 28.3652C80.4286 29.0612 79.2409 29.4091 77.873 29.4092C76.433 29.4092 75.2082 29.1219 74.2002 28.5459C73.1923 27.9699 72.4245 27.0817 71.8965 25.8818C71.3925 24.6579 71.1407 23.0858 71.1406 21.166V10.9775H75.8926V20.1934Z" fill="black"/>
<path d="M98.0449 10.9775H102.545V15.0098H98.0449V22.6777C98.045 23.4455 98.2129 24.0335 98.5488 24.4414C98.8848 24.8254 99.3774 25.0176 100.025 25.0176C100.265 25.0175 100.53 24.969 100.817 24.873C101.105 24.7531 101.405 24.585 101.717 24.3691L103.373 27.9336C102.797 28.3656 102.149 28.7135 101.429 28.9775C100.733 29.2655 100.037 29.4092 99.3408 29.4092C97.3489 29.4092 95.8367 28.9176 94.8047 27.9336C93.7968 26.9497 93.293 25.5455 93.293 23.7217V15.0098H90.377V10.9775H93.293V5.36133H98.0449V10.9775Z" fill="black"/>
<path fill-rule="evenodd" clip-rule="evenodd" d="M59.1924 3.77734L69.1279 28.9775H63.9082L61.7852 23.4336H51.3428L49.2197 28.9775H44L53.9355 3.77734H59.1924ZM53.0107 19.0771H60.1172L56.5635 9.79492L53.0107 19.0771Z" fill="black"/>
<path d="M117.534 15.5137C116.43 15.5137 115.386 15.6452 114.402 15.9092C113.442 16.1731 112.662 16.6052 112.062 17.2051C111.463 17.805 111.162 18.573 111.162 19.5088V28.9775H106.41V10.9775H111.162V14.2373C111.881 13.1883 112.756 12.3892 113.79 11.8408C114.99 11.2169 116.238 10.9053 117.534 10.9053V15.5137Z" fill="black"/>
<path d="M125.091 28.9775H120.339V10.9775H125.091V28.9775Z" fill="black"/>
<path d="M137.428 23.7666L142.288 10.9775H147.184L139.804 28.9775H135.052L127.672 10.9775H132.568L137.428 23.7666Z" fill="black"/>
<path d="M122.715 2.58984C123.459 2.58992 124.094 2.86615 124.622 3.41797C125.174 3.94597 125.45 4.58217 125.45 5.32617C125.45 6.07003 125.174 6.71761 124.622 7.26953C124.094 7.79741 123.459 8.06145 122.715 8.06152C121.995 8.06152 121.359 7.79753 120.807 7.26953C120.255 6.71763 119.979 6.06999 119.979 5.32617C119.979 4.58217 120.255 3.94597 120.807 3.41797C121.359 2.86597 121.995 2.58984 122.715 2.58984Z" fill="black"/>
<defs>
<clipPath id="clip0_11013_23069">
<rect width="32" height="32" fill="white"/>
</clipPath>
</defs>
</svg>
